HIERARCHY
ROOT pelvis
{
    OFFSET 0.0 0.0 0.0
    CHANNELS 6 Xposition Yposition Zposition Zrotation Yrotation Xrotation
    JOINT shoulderL
    {
        OFFSET -0.1 0.3 0.0
        CHANNELS 3 Zrotation Yrotation Xrotation
        JOINT elbowL
        {
            OFFSET -0.2 0.0 0.0
            CHANNELS 3 Zrotation Yrotation Xrotation
            End handL
            {
                OFFSET -0.15 0.0 0.0
            }
        }
    }
    JOINT shoulderR
    {
        OFFSET 0.1 0.3 0.0
        CHANNELS 3 Zrotation Yrotation Xrotation
        JOINT elbowR
        {
            OFFSET 0.2 0.0 0.0
            CHANNELS 3 Zrotation Yrotation Xrotation
            End handR
            {
                OFFSET 0.15 0.0 0.0
            }
        }
    }
}

MOTION
Frames: 12
Frame Time: 0.016666666666666666
0.0 0.0 0.0 0.0 0.0 0.0 1.4908836924449484e-16 6.212015385187284e-17 8.082093585354978e-35 -1.4908846976800469e-16 1.2424089850548236e-17 8.082099034743273e-35 -1.4908829289383578e-16 9.939219526255718e-17 -1.2931349736567968e-34 9.939210135796273e-17 -9.939214022350545e-17 -4.310440783152839e-35 
0.0 0.0 0.0 -0.023126314551109646 0.02228858459492908 0.07339737194959413 0.021072165464597156 0.01163106642051588 -0.12983082405734941 0.0327907987963709 0.07470324084998223 -0.15125450980465 0.15179308285427007 -0.02477131511253492 0.2037620901008688 0.02763436926815894 0.15832055433059833 0.0673271277298238 
0.0 0.0 0.0 -0.05018404829721863 0.06363156223727143 0.1601739633064239 0.026234625929817134 0.010663833546765106 -0.22408041258149208 0.03694890680407837 0.13101935729874456 -0.25736025316530087 0.3130146955357801 -0.06981893679684785 0.3727035063313167 0.06445266867643765 0.3482750265925692 0.10726184830317502 
0.0 0.0 0.0 -0.08250379391116994 0.0985049011267727 0.27428018758841527 0.016092397918955913 0.02941121590186251 -0.2599919313070549 0.020234220468747097 0.16440362880364884 -0.26850820068175474 0.48289416547243574 -0.12496229035255928 0.5389929072738066 0.1063868906546923 0.5856530104949808 0.11477105774804526 
0.0 0.0 0.0 -0.12865182445288192 0.16363224332290197 0.37206157416129587 -0.009953305975533233 0.010381168205266108 -0.23804982495627966 0.03502777436517045 0.1845842602472654 -0.1788423158144315 0.6735129261138625 -0.20795151818649 0.7806320034483293 0.165150304863998 0.8471586334939012 0.157051913641028 
0.0 0.0 0.0 -0.1975933218209071 0.2674784183256471 0.42546161512250846 -0.024990603230218678 -0.06566842382147214 -0.12400171461023617 0.07325142030727025 0.209963423544294 -0.08144799479608922 0.903136384587495 -0.33459111089860666 1.14377391713518 0.24550137411758843 1.1519823228845842 0.25168448769409185 
0.0 0.0 0.0 -0.2783648264524061 0.36679457805619436 0.4942149687939842 -0.02636797770751923 -0.15538284246424283 -0.008010179762948155 0.11000985869815401 0.23828773691619276 -0.03474608453391364 1.1877080000272313 -0.4720542229401928 1.5880085819042595 0.3044705169421062 1.5118221793242312 0.3339015609773389 
0.0 0.0 0.0 -0.3590564700248394 0.45143936249353217 0.6110377312012839 -0.023482368863705732 -0.24018047891167985 0.08647484977258271 0.14516809065351527 0.2528128132175299 -0.0438186949055272 1.4787678661027253 -0.6118377882347873 2.033732506063858 0.35472990132876264 1.9279922502428672 0.3520306772410663 
0.0 0.0 0.0 -0.43570110147530094 0.5882683757248144 0.7244381284448124 -0.008737555011796187 -0.3760002585515352 0.176296849115894 0.16932914133928423 0.23584543684293682 -5.951243460024358e-05 1.7293165807834583 -0.8210700874407746 2.4148945702064273 0.4510051165804364 2.403891442811702 0.29790626825614314 
0.0 0.0 0.0 -0.5024822372243712 0.7902120297860059 0.783022301116111 0.0017337637153340586 -0.5851971902366195 0.32377093473578394 0.19147269389930363 0.20126309287721747 0.09475379499285361 1.9326838308889158 -1.1026223495953462 2.719709197353354 0.6036470857022191 2.9052817691137705 0.27861566413813477 
0.0 0.0 0.0 -0.5604650288842491 1.0140235607579315 0.7591452375071738 0.02026781714060937 -0.8376470887559038 0.5262276617234887 0.23461271953142154 0.1676963035693756 0.1836667950556848 2.1152168485556158 -1.411774765614636 3.0404226767654285 0.7805918585168902 3.402831644345964 0.37305307734643584 
0.0 0.0 0.0 -0.6128760751032176 1.1767768281948978 0.7172020015632381 0.06189672845701142 -1.068384026336848 0.654533716894231 0.24623268339535545 0.14463157018253747 0.15774278499344488 2.2821206438825645 -1.6663963057881397 3.3831310347062997 0.9576942728459814 3.8665449421491815 0.5837261316426721 
